<svg width="980" height="551" xmlns="http://www.w3.org/2000/svg" xmlns:xlink="http://www.w3.org/1999/xlink">
<path fill="#ff595e" d="M 153.34 303.75 Q 153.34 303.75 140.94 302.07 128.55 300.40 122.89 298.69 117.24 296.99 112.40 292.36 107.56 287.73 105.66 285.15 103.76 282.56 103.61 282.38 103.46 282.19 103.36 281.97 103.26 281.75 103.21 281.51 103.17 281.28 103.18 281.03 103.20 280.79 103.27 280.56 103.34 280.33 103.46 280.13 103.58 279.92 103.75 279.75 103.92 279.57 104.13 279.45 104.33 279.32 104.56 279.25 104.79 279.18 105.03 279.16 105.27 279.14 105.51 279.19 105.75 279.23 105.97 279.33 106.19 279.42 106.38 279.57 106.57 279.72 111.82 275.98 117.07 272.25 121.57 270.68 126.07 269.11 132.97 272.01 139.86 274.92 143.53 276.74 147.19 278.55 149.93 282.42 152.68 286.29 153.49 289.52 154.31 292.76 151.51 294.88 148.72 297.00 145.55 297.35 142.39 297.71 142.39 297.70 142.39 297.70 142.38 297.69 142.38 297.69 144.40 295.70 146.43 293.72 149.12 291.98 151.82 290.24 150.59 289.38 149.36 288.52 147.29 285.24 145.22 281.96 141.71 280.26 138.21 278.56 132.39 275.70 126.58 272.83 122.79 274.29 119.00 275.75 111.38 279.16 103.76 282.56 103.61 282.38 103.46 282.19 103.36 281.97 103.26 281.75 103.21 281.51 103.17 281.28 103.18 281.03 103.20 280.79 103.27 280.56 103.34 280.33 103.46 280.13 103.58 279.92 103.75 279.75 103.92 279.58 104.13 279.45 104.33 279.32 104.56 279.25 104.79 279.18 105.03 279.16 105.27 279.14 105.51 279.19 105.75 279.23 105.97 279.33 106.19 279.42 106.38 279.57 106.57 279.72 108.47 282.30 110.37 284.88 114.47 289.08 118.58 293.27 123.99 294.88 129.40 296.49 141.37 300.11 153.35 303.73 153.35 303.74 Z" data-drauu_index="0"></path><path fill="#ff595e" d="M 117.72 241.09 Q 117.72 241.09 115.96 242.42 114.21 243.75 113.13 244.33 112.05 244.91 111.40 245.68 110.75 246.45 110.05 247.51 109.34 248.57 110.68 249.52 112.02 250.47 114.94 251.46 117.86 252.45 117.86 252.46 117.86 252.46 117.86 252.47 117.86 252.47 115.02 253.70 112.18 254.92 110.74 254.16 109.30 253.39 107.74 251.57 106.18 249.76 106.97 246.79 107.76 243.82 108.98 242.60 110.19 241.38 111.82 240.60 113.45 239.83 115.58 240.45 117.71 241.07 117.71 241.08 Z" data-drauu_index="1"></path><path fill="#ff595e" d="M 126.94 233.71 Q 126.94 233.71 128.28 238.76 129.63 243.81 129.78 247.43 129.93 251.05 129.00 253.32 128.07 255.59 128.07 255.59 128.06 255.59 128.06 255.60 128.05 255.60 127.00 253.40 125.94 251.21 125.79 247.65 125.64 244.09 126.28 238.90 126.92 233.71 126.93 233.71 Z" data-drauu_index="2"></path><path fill="#ff595e" d="M 137.38 231.25 Q 137.38 231.25 138.64 234.44 139.90 237.64 139.89 237.64 139.89 237.64 139.88 237.65 139.88 237.65 138.62 234.45 137.36 231.25 137.37 231.25 Z" data-drauu_index="3"></path><path fill="#ff595e" d="M 139.23 242.31 Q 139.23 242.31 139.48 245.76 139.73 249.20 139.72 249.20 139.72 249.20 139.71 249.21 139.71 249.21 139.46 245.76 139.21 242.31 139.22 242.31 Z" data-drauu_index="4"></path><path fill="#ff595e" d="M 153.96 241.70 Q 153.96 241.70 151.99 243.98 150.01 246.25 152.02 246.44 154.03 246.63 156.02 247.20 158.01 247.77 158.01 247.77 158.01 247.78 158.02 247.78 158.02 247.78 156.10 249.20 154.19 250.61 150.97 250.50 147.74 250.39 146.49 248.57 145.24 246.75 146.63 244.77 148.02 242.78 150.99 242.23 153.95 241.68 153.96 241.69 Z" data-drauu_index="5"></path><path fill="#ff595e" d="M 166.26 230.64 Q 166.26 230.64 166.72 236.21 167.18 241.78 166.95 245.31 166.73 248.84 165.60 251.89 164.47 254.95 164.47 254.95 164.46 254.94 164.46 254.94 164.45 254.94 163.60 251.77 162.74 248.59 162.97 244.99 163.20 241.39 164.72 236.01 166.24 230.63 166.25 230.64 Z" data-drauu_index="6"></path><path fill="#ff595e" d="M 173.62 240.47 Q 173.62 240.47 171.95 241.62 170.28 242.77 168.51 243.04 166.74 243.30 165.79 243.41 164.85 243.52 164.61 243.52 164.37 243.52 164.13 243.47 163.90 243.42 163.68 243.31 163.47 243.20 163.28 243.04 163.10 242.89 162.96 242.69 162.82 242.50 162.73 242.27 162.64 242.05 162.61 241.81 162.57 241.57 162.60 241.33 162.62 241.09 162.70 240.86 162.79 240.64 162.92 240.44 163.05 240.24 163.23 240.07 163.41 239.91 163.62 239.79 163.83 239.68 164.06 239.62 164.30 239.55 165.82 240.29 167.35 241.02 170.42 241.84 173.50 242.66 175.83 243.48 178.17 244.29 179.39 245.69 180.60 247.09 180.60 247.10 180.60 247.10 180.60 247.10 180.60 247.11 178.79 247.51 176.98 247.91 174.70 247.21 172.41 246.51 168.63 245.01 164.85 243.52 164.61 243.52 164.37 243.52 164.13 243.47 163.90 243.42 163.68 243.31 163.47 243.20 163.28 243.04 163.10 242.89 162.96 242.69 162.82 242.50 162.73 242.27 162.64 242.05 162.61 241.81 162.57 241.57 162.60 241.33 162.62 241.09 162.70 240.86 162.79 240.64 162.92 240.44 163.05 240.24 163.23 240.07 163.41 239.91 163.62 239.79 163.83 239.68 164.06 239.62 164.30 239.55 165.24 239.45 166.19 239.34 168.04 239.10 169.89 238.86 171.75 239.66 173.62 240.45 173.62 240.46 Z" data-drauu_index="7"></path>
</svg>