<svg width="980" height="551" xmlns="http://www.w3.org/2000/svg" xmlns:xlink="http://www.w3.org/1999/xlink">
<path fill="#ff595e" d="M 446.38 199.29 Q 446.38 199.29 452.21 198.30 458.04 197.30 469.70 197.30 481.36 197.30 502.56 197.30 523.77 197.30 553.80 197.30 583.83 197.30 616.55 197.30 649.27 197.30 683.84 197.30 718.41 197.30 748.82 197.30 779.24 197.30 798.87 197.30 818.51 197.30 828.44 198.30 838.38 199.29 838.38 199.30 838.38 199.30 838.38 199.31 838.38 199.31 828.44 200.31 818.51 201.30 798.87 201.30 779.24 201.30 748.82 201.30 718.41 201.30 683.84 201.30 649.27 201.30 616.55 201.30 583.83 201.30 553.80 201.30 523.77 201.30 502.56 201.30 481.36 201.30 469.70 201.30 458.04 201.30 452.21 200.31 446.38 199.31 446.38 199.30 Z" data-drauu_index="2"></path>
</svg>